<svg width="20" height="20" viewBox="0 0 26 24" fill="none" xmlns="http://www.w3.org/2000/svg">
<path d="M1 3L1 21" stroke="white" stroke-width="2" stroke-linecap="round"/>
<path d="M6.73843 9.738C6.85144 9.622 7.27813 9.126 7.6756 8.718C10.0058 6.152 16.0848 1.952 19.2664 0.67C19.7496 0.464 20.9713 0.028 21.624 0C22.2494 0 22.8456 0.144 23.4145 0.436C24.1237 0.844 24.6926 1.486 25.0044 2.244C25.2051 2.77 25.5168 4.344 25.5168 4.372C25.8285 6.094 26 8.892 26 11.984C26 14.93 25.8285 17.614 25.5733 19.362C25.5441 19.39 25.2323 21.346 24.8914 22.016C24.266 23.24 23.0443 24 21.737 24H21.624C20.7725 23.97 18.982 23.21 18.982 23.182C15.9717 21.898 10.0331 17.904 7.64637 15.25C7.64637 15.25 6.97418 14.568 6.68193 14.142C6.22601 13.53 6 12.772 6 12.014C6 11.168 6.25524 10.38 6.73843 9.738Z" fill="white"/>
</svg>
